<?xml version="1.0" encoding="UTF-8" standalone="no"?>
<!-- Created with Inkscape (http://www.inkscape.org/) -->

<svg
   width="195mm"
   height="195mm"
   viewBox="0 0 195 195"
   version="1.1"
   id="svg5"
   inkscape:version="1.2 (dc2aeda, 2022-05-15)"
   sodipodi:docname="drawing copy.svg"
   xmlns:inkscape="http://www.inkscape.org/namespaces/inkscape"
   xmlns:sodipodi="http://sodipodi.sourceforge.net/DTD/sodipodi-0.dtd"
   xmlns="http://www.w3.org/2000/svg"
   xmlns:svg="http://www.w3.org/2000/svg">
  <sodipodi:namedview
     id="namedview7"
     pagecolor="#ffffff"
     bordercolor="#000000"
     borderopacity="0.25"
     inkscape:showpageshadow="2"
     inkscape:pageopacity="0.0"
     inkscape:pagecheckerboard="0"
     inkscape:deskcolor="#d1d1d1"
     inkscape:document-units="mm"
     showgrid="false"
     inkscape:zoom="0.96326811"
     inkscape:cx="326.49269"
     inkscape:cy="495.7083"
     inkscape:window-width="1547"
     inkscape:window-height="1205"
     inkscape:window-x="0"
     inkscape:window-y="25"
     inkscape:window-maximized="0"
     inkscape:current-layer="layer1" />
  <defs
     id="defs2" />
  <g
     inkscape:label="Layer 1"
     inkscape:groupmode="layer"
     id="layer1">
    <circle
       style="fill:#000000;stroke-width:0.264583"
       id="path117"
       cx="109.2878"
       cy="84.075439"
       transform="rotate(7.4288048)"
       r="89.016853" />
    <path
       style="fill:#ffffff;stroke-width:0.948507"
       d="M 70.615195,169.18485 C 35.065646,155.36427 14.483422,116.71099 23.378244,80.474252 29.443534,55.764736 44.852437,37.186067 67.327095,27.48468 82.754723,20.8252 94.445427,19.569865 112.303,22.655219 c 8.76302,1.514031 12.20563,2.580664 18.56611,5.752399 8.81398,4.39521 18.61716,12.039212 25.02817,19.515676 9.36664,10.923289 16.9823,28.462892 18.01528,41.490988 0.7891,9.953271 -1.77301,27.803398 -5.23467,36.469018 -5.81285,14.55151 -16.95133,27.86045 -30.44609,36.37876 -8.86165,5.59383 -24.62122,10.90649 -34.3628,11.584 -9.786875,0.68068 -24.997629,-1.45146 -33.253859,-4.66109 z"
       id="path383" />
    <ellipse
       style="fill:#000000;stroke-width:0.333639"
       id="path459"
       cx="109.2878"
       cy="84.075439"
       rx="70.965141"
       ry="70.521606"
       transform="rotate(7.4288048)" />
    <circle
       style="fill:#ffffff;stroke-width:0.101502"
       id="path462"
       cx="109.2878"
       cy="84.075439"
       transform="rotate(7.4288048)"
       r="21.467087" />
    <circle
       style="fill:#000000;stroke-width:0.302022"
       id="path464"
       cx="109.2878"
       cy="84.075432"
       transform="rotate(7.4288048)"
       r="18.29694" />
    <circle
       style="fill:#ffffff;stroke-width:0.155746"
       id="path466"
       cx="109.2878"
       cy="84.075439"
       transform="rotate(7.4288048)"
       r="9.4352522" />
    <path
       style="fill:#ffffff;stroke-width:0.274955"
       id="path836"
       d="m 75.552238,51.462571 c 0.106502,-0.117751 0.201235,-0.24555 0.319483,-0.353249 0.113427,-0.103305 0.250892,-0.181278 0.372132,-0.27664 1.307623,-1.028472 2.548996,-1.928888 4.072163,-2.697699 0.649375,-0.32777 1.33563,-0.588019 2.003446,-0.882025 2.607262,-1.026424 5.4143,-1.618147 8.235952,-1.818725 3.760832,-0.267362 7.501003,0.177537 11.221626,0.584389 9.09741,0.969401 10.64364,-10.953154 1.54619,-11.922548 v 0 c -3.707201,-0.386402 -5.82687,-0.698136 -9.595602,-0.71366 -5.954035,-0.02454 -11.652675,0.862384 -17.117364,3.124255 -1.0704,0.504308 -2.166602,0.963869 -3.211195,1.512915 -2.958436,1.554963 -5.718724,3.577384 -7.940892,5.965523 -5.745726,6.637539 4.348309,14.115023 10.094035,7.477479 z" />
    <path
       style="fill:#ffffff;stroke-width:0.274955"
       id="path836-7"
       d="m 99.192534,148.40782 c 0.148489,0.0564 0.291047,0.12679 0.445386,0.16875 0.148021,0.0404 0.306,0.0466 0.45722,0.0771 1.63275,0.31917 3.14813,0.55456 4.85424,0.5446 0.72741,-0.004 1.45683,-0.0856 2.18524,-0.12833 2.78851,-0.27507 5.55664,-1.02813 8.15944,-2.13596 3.46917,-1.4766 6.59521,-3.5777 9.72123,-5.63599 7.65506,-5.01026 14.46666,4.89631 6.81181,9.90642 v 0 c -3.12342,2.03394 -4.86786,3.27779 -8.21506,5.00975 -5.28813,2.73623 -10.76446,4.54481 -16.65939,5.02299 -1.1826,0.0391 -2.36776,0.12986 -3.54777,0.11741 -3.34202,-0.035 -6.720783,-0.57687 -9.78733,-1.68929 -8.139924,-3.28824 -2.564803,-14.5452 5.575101,-11.25703 z" />
  </g>
</svg>
