<svg width="1558" height="487" viewBox="0 0 1558 487" fill="none" xmlns="http://www.w3.org/2000/svg">
<path d="M1509.31 486.875H48.6875C21.9094 486.875 0 464.966 0 438.188V48.6875C0 21.9094 21.9094 0 48.6875 0H1509.31C1536.09 0 1558 21.9094 1558 48.6875V438.188C1558 464.966 1536.09 486.875 1509.31 486.875Z" fill="white"/>
<path d="M328.641 241.003C328.641 203.271 360.288 185.013 361.505 183.796C343.247 158.235 316.469 154.583 306.731 153.366C283.605 150.932 260.478 166.755 249.524 166.755C237.352 166.755 219.094 153.366 199.619 153.366C174.058 153.366 150.931 167.972 137.542 191.099C110.764 237.352 130.239 305.514 155.8 343.247C169.189 361.505 183.795 382.197 203.27 380.98C222.745 379.763 230.049 368.808 253.175 368.808C276.302 368.808 282.388 380.98 303.08 380.98C323.772 380.98 337.161 362.722 349.333 344.464C363.939 323.772 370.025 303.08 370.025 301.863C368.808 300.646 328.641 286.039 328.641 241.003Z" fill="black"/>
<path d="M290.91 129.023C300.647 115.634 307.95 98.5933 306.733 80.3354C292.127 81.5526 272.652 90.0729 262.915 103.462C253.177 114.417 244.657 132.674 247.091 149.715C262.915 150.932 279.955 141.195 290.91 129.023Z" fill="black"/>
<path d="M606.159 378.545H579.381L564.775 332.292H513.653L500.264 378.545H474.703L525.825 221.528H557.472L606.159 378.545ZM559.906 312.817L546.517 271.432C545.3 267.781 542.866 256.826 537.997 242.22C536.78 248.306 534.345 259.26 530.694 271.432L517.305 312.817H559.906Z" fill="black"/>
<path d="M736.398 321.337C736.398 340.812 731.53 355.418 720.575 367.59C710.838 377.328 699.883 382.196 685.277 382.196C670.67 382.196 659.716 377.328 653.63 366.373V426.015H628.069V304.296C628.069 292.124 628.069 279.953 626.852 266.564H648.761L649.978 284.821C658.498 271.432 670.67 264.129 687.711 264.129C701.1 264.129 712.055 268.998 720.575 279.953C731.53 289.69 736.398 303.079 736.398 321.337ZM710.838 321.337C710.838 310.382 708.403 300.645 703.534 294.559C698.666 287.256 691.363 283.604 681.625 283.604C675.539 283.604 669.453 286.039 664.584 289.69C659.716 293.342 656.064 299.428 654.847 305.513C653.63 309.165 653.63 311.599 653.63 312.817V332.292C653.63 340.812 656.064 346.898 660.933 352.984C665.802 359.07 673.105 361.504 680.408 361.504C690.145 361.504 697.448 357.853 702.317 350.549C708.403 343.246 710.838 333.509 710.838 321.337Z" fill="black"/>
<path d="M866.64 321.337C866.64 340.812 861.771 355.418 850.816 367.59C841.079 377.328 830.124 382.196 815.518 382.196C800.911 382.196 789.957 377.328 783.871 366.373V426.015H758.31V304.296C758.31 292.124 758.31 279.953 757.093 266.564H779.002L780.219 284.821C788.74 271.432 800.912 264.129 817.952 264.129C831.341 264.129 842.296 268.998 850.816 279.953C861.771 289.69 866.64 303.079 866.64 321.337ZM841.079 321.337C841.079 310.382 838.644 300.645 833.776 294.559C828.907 287.256 821.604 283.604 811.866 283.604C805.78 283.604 799.694 286.039 794.826 289.69C789.957 293.342 786.305 299.428 785.088 305.513C783.871 309.165 783.871 311.599 783.871 312.817V332.292C783.871 340.812 786.305 346.898 791.174 352.984C796.043 359.07 803.346 361.504 810.649 361.504C820.387 361.504 827.69 357.853 832.558 350.549C838.644 343.246 841.079 333.509 841.079 321.337Z" fill="black"/>
<path d="M1012.7 334.728C1012.7 348.117 1007.83 359.071 999.309 367.592C989.571 377.329 974.965 380.981 956.707 380.981C939.667 380.981 926.278 377.329 916.54 371.243L922.626 350.551C933.581 356.637 945.753 360.289 959.142 360.289C968.879 360.289 976.182 357.854 981.051 354.203C985.92 349.334 988.354 344.465 988.354 337.162C988.354 331.076 985.92 324.99 982.268 321.339C977.399 316.47 970.096 312.818 960.359 309.167C932.363 299.429 918.974 283.606 918.974 264.131C918.974 250.742 923.843 241.004 933.581 232.484C943.318 223.964 955.49 220.312 972.531 220.312C987.137 220.312 998.092 222.746 1007.83 227.615L1001.74 248.307C993.223 243.439 983.485 241.004 971.313 241.004C962.793 241.004 955.49 243.439 950.621 247.09C946.97 250.742 944.535 255.61 944.535 261.696C944.535 267.782 946.97 272.651 951.838 277.52C955.49 281.171 964.01 284.823 974.965 289.692C988.354 294.56 998.092 301.864 1005.39 309.167C1009.05 315.253 1012.7 323.773 1012.7 334.728Z" fill="black"/>
<path d="M1095.47 284.822H1067.47V339.595C1067.47 352.984 1072.34 360.287 1082.08 360.287C1086.95 360.287 1090.6 360.288 1093.03 359.07L1094.25 378.545C1089.38 380.98 1083.29 380.98 1074.77 380.98C1065.04 380.98 1056.52 378.545 1051.65 372.459C1045.56 366.373 1043.13 356.636 1043.13 342.03V284.822H1026.09V265.347H1043.13V244.655L1067.47 237.352V265.347H1095.47V284.822Z" fill="black"/>
<path d="M1220.84 321.339C1220.84 338.379 1215.97 352.985 1206.24 363.94C1195.28 374.895 1181.89 380.981 1164.85 380.981C1147.81 380.981 1134.42 374.895 1124.68 363.94C1114.95 352.985 1110.08 339.596 1110.08 322.556C1110.08 305.515 1114.95 290.909 1125.9 279.954C1135.64 269 1150.24 262.914 1167.29 262.914C1184.33 262.914 1197.71 269 1207.45 279.954C1215.97 290.909 1220.84 304.298 1220.84 321.339ZM1194.06 322.556C1194.06 311.601 1191.63 303.081 1186.76 295.778C1181.89 287.257 1173.37 282.389 1163.63 282.389C1153.9 282.389 1145.38 287.257 1140.51 295.778C1135.64 303.081 1133.2 312.818 1133.2 322.556C1133.2 333.51 1135.64 342.031 1140.51 349.334C1145.38 357.854 1153.9 362.723 1163.63 362.723C1173.37 362.723 1180.67 357.854 1186.76 349.334C1191.63 342.031 1194.06 332.293 1194.06 322.556Z" fill="black"/>
<path d="M1302.39 287.256C1299.96 287.256 1297.52 286.039 1293.87 286.039C1285.35 286.039 1278.05 289.691 1273.18 295.777C1269.53 301.862 1267.09 309.166 1267.09 317.686V377.328H1241.53V299.428C1241.53 286.039 1241.53 275.084 1240.31 264.13H1262.22L1263.44 286.039H1264.66C1267.09 278.736 1271.96 272.65 1276.83 267.781C1282.91 264.13 1289 261.695 1295.09 261.695C1297.52 261.695 1299.96 261.695 1301.17 261.695V287.256H1302.39Z" fill="black"/>
<path d="M1414.37 316.47C1414.37 321.339 1414.37 324.99 1413.15 327.425H1337.69C1337.69 338.379 1341.34 346.9 1348.64 352.985C1354.73 357.854 1363.25 361.506 1372.99 361.506C1383.94 361.506 1394.9 360.289 1403.42 356.637L1407.07 373.678C1396.11 378.546 1383.94 380.981 1369.33 380.981C1352.29 380.981 1337.69 376.112 1327.95 365.157C1318.21 355.42 1313.34 340.814 1313.34 323.773C1313.34 306.732 1318.21 292.126 1326.73 281.171C1336.47 269 1349.86 262.914 1366.9 262.914C1382.72 262.914 1396.11 269 1403.42 281.171C1411.94 290.909 1414.37 303.081 1414.37 316.47ZM1391.24 310.384C1391.24 303.081 1390.03 296.995 1386.38 290.909C1381.51 283.606 1375.42 279.954 1366.9 279.954C1358.38 279.954 1352.29 283.606 1347.43 289.692C1343.77 294.56 1341.34 301.864 1340.12 309.167H1391.24V310.384Z" fill="black"/>
<path d="M552.605 125.371C552.605 138.76 548.954 149.715 540.433 157.018C533.13 163.104 522.176 166.755 507.569 166.755C500.266 166.755 494.18 166.755 489.312 165.538V90.0724C495.397 88.8552 502.701 88.8552 511.221 88.8552C524.61 88.8552 534.347 91.2896 541.651 97.3755C547.736 103.461 552.605 113.199 552.605 125.371ZM539.216 125.371C539.216 116.851 536.782 109.547 531.913 104.679C527.044 99.8099 519.741 97.3755 511.221 97.3755C507.569 97.3755 503.918 97.3756 501.483 98.5927V155.801C502.701 155.801 506.352 155.801 510.004 155.801C519.741 155.801 527.044 153.366 531.913 148.497C536.782 143.629 539.216 135.108 539.216 125.371Z" fill="black"/>
<path d="M620.766 137.541C620.766 146.061 618.331 153.365 613.463 158.233C608.594 164.319 601.291 166.754 592.77 166.754C584.25 166.754 578.164 164.319 573.295 158.233C568.427 153.365 565.992 146.061 565.992 137.541C565.992 129.021 568.427 121.718 573.295 116.849C578.164 110.763 585.467 108.329 593.988 108.329C602.508 108.329 608.594 110.763 613.463 116.849C618.331 121.718 620.766 129.021 620.766 137.541ZM608.594 137.541C608.594 132.672 607.377 127.804 604.942 124.152C602.508 119.283 598.856 118.066 593.988 118.066C589.119 118.066 585.467 120.501 583.033 124.152C580.598 127.804 579.381 132.672 579.381 137.541C579.381 142.41 580.598 147.279 583.033 150.93C585.467 155.799 589.119 157.016 593.988 157.016C598.856 157.016 602.508 154.582 604.942 149.713C607.377 147.279 608.594 142.41 608.594 137.541Z" fill="black"/>
<path d="M714.489 109.547L697.448 165.537H686.494L679.191 141.194C676.756 135.108 675.539 129.022 674.322 122.936C673.105 129.022 671.888 135.108 669.453 141.194L662.15 165.537H651.195L632.938 109.547H645.109L651.195 136.325C652.413 142.411 653.63 148.497 654.847 154.583C656.064 149.714 657.281 143.628 659.716 136.325L667.019 109.547H676.756L684.059 135.108C686.494 141.194 687.711 147.28 688.928 153.366C690.145 147.28 691.363 141.194 692.58 135.108L699.883 109.547H714.489Z" fill="black"/>
<path d="M777.783 165.538H765.611V133.891C765.611 124.154 761.959 119.285 754.656 119.285C751.005 119.285 748.57 120.502 746.136 122.936C743.702 125.371 742.484 129.022 742.484 132.674V165.538H730.312V125.371C730.312 120.502 730.312 115.633 730.312 109.547H741.267V118.068C742.484 115.633 744.919 113.199 747.353 110.765C751.005 108.33 754.656 107.113 758.308 107.113C763.177 107.113 768.045 108.33 771.697 111.982C776.566 115.633 777.783 121.719 777.783 130.24V165.538Z" fill="black"/>
<path d="M811.866 165.536H799.694V83.9849H811.866V165.536Z" fill="black"/>
<path d="M884.897 137.541C884.897 146.061 882.463 153.365 877.594 158.233C872.726 164.319 865.422 166.754 856.902 166.754C848.382 166.754 842.296 164.319 837.427 158.233C832.558 153.365 830.124 146.061 830.124 137.541C830.124 129.021 832.558 121.718 837.427 116.849C842.296 111.98 849.599 108.329 858.119 108.329C866.64 108.329 872.726 110.763 877.594 116.849C882.463 121.718 884.897 129.021 884.897 137.541ZM872.726 137.541C872.726 132.672 871.508 127.804 869.074 124.152C866.64 119.283 862.988 118.066 858.119 118.066C853.251 118.066 849.599 120.501 847.165 124.152C844.73 127.804 843.513 132.672 843.513 137.541C843.513 142.41 844.73 147.279 847.165 150.93C849.599 155.799 853.251 157.016 858.119 157.016C862.988 157.016 866.64 154.582 869.074 149.713C871.508 147.279 872.726 142.41 872.726 137.541Z" fill="black"/>
<path d="M944.536 165.536H933.582L932.365 159.45C928.713 164.319 922.627 166.754 916.541 166.754C911.672 166.754 906.804 165.536 904.369 161.885C901.935 158.233 899.5 154.582 899.5 150.93C899.5 143.627 901.935 138.758 908.021 135.107C914.107 131.455 921.41 130.238 932.365 130.238V129.021C932.365 121.718 928.713 118.066 921.41 118.066C915.324 118.066 911.672 119.283 906.804 121.718L904.369 113.197C909.238 109.546 915.324 108.329 923.844 108.329C938.45 108.329 945.754 115.632 945.754 131.455V152.147C944.536 158.233 944.536 161.885 944.536 165.536ZM932.365 146.061V137.541C918.976 137.541 911.672 141.193 911.672 148.496C911.672 150.93 912.89 153.365 914.107 154.582C915.324 155.799 917.758 157.016 920.193 157.016C922.627 157.016 925.061 155.799 927.496 154.582C929.93 153.365 931.147 150.93 932.365 148.496C932.365 148.496 932.365 147.279 932.365 146.061Z" fill="black"/>
<path d="M1015.14 165.537H1004.18V157.017C1000.53 164.32 994.443 166.755 985.923 166.755C978.62 166.755 973.751 164.32 968.882 159.452C964.014 154.583 962.796 147.28 962.796 138.759C962.796 130.239 965.231 122.936 970.099 116.85C974.968 111.981 981.054 109.547 987.14 109.547C994.443 109.547 999.312 111.981 1002.96 116.85V85.2031H1015.14V150.931C1015.14 155.8 1015.14 160.669 1015.14 165.537ZM1002.96 142.411V132.673C1002.96 131.456 1002.96 130.239 1002.96 129.022C1001.75 126.588 1000.53 124.153 998.095 121.719C995.66 119.284 993.226 119.284 989.574 119.284C984.706 119.284 981.054 121.719 978.62 125.37C976.185 129.022 974.968 133.891 974.968 139.977C974.968 146.062 976.185 149.714 978.62 153.366C981.054 157.017 984.706 159.452 989.574 159.452C993.226 159.452 996.878 158.234 999.312 154.583C1001.75 149.714 1002.96 146.063 1002.96 142.411Z" fill="black"/>
<path d="M1121.03 137.541C1121.03 146.061 1118.6 153.365 1113.73 158.233C1108.86 164.319 1101.56 166.754 1093.04 166.754C1084.52 166.754 1078.43 164.319 1073.56 158.233C1068.69 153.365 1066.26 146.061 1066.26 137.541C1066.26 129.021 1068.69 121.718 1073.56 116.849C1078.43 110.763 1085.73 108.329 1094.25 108.329C1102.77 108.329 1108.86 110.763 1113.73 116.849C1118.6 121.718 1121.03 129.021 1121.03 137.541ZM1107.64 137.541C1107.64 132.672 1106.42 127.804 1103.99 124.152C1101.56 119.283 1097.9 118.066 1093.04 118.066C1088.17 118.066 1084.52 120.501 1082.08 124.152C1079.65 127.804 1078.43 132.672 1078.43 137.541C1078.43 142.41 1079.65 147.279 1082.08 150.93C1084.52 155.799 1088.17 157.016 1093.04 157.016C1097.9 157.016 1101.56 154.582 1103.99 149.713C1106.42 147.279 1107.64 142.41 1107.64 137.541Z" fill="black"/>
<path d="M1187.98 165.538H1175.81V133.891C1175.81 124.154 1172.15 119.285 1164.85 119.285C1161.2 119.285 1158.76 120.502 1156.33 122.936C1153.9 125.371 1152.68 129.022 1152.68 132.674V165.538H1140.51V125.371C1140.51 120.502 1140.51 115.633 1140.51 109.547H1151.46V118.068C1152.68 115.633 1155.11 113.199 1157.55 110.765C1161.2 108.33 1164.85 107.113 1168.5 107.113C1173.37 107.113 1178.24 108.33 1181.89 111.982C1186.76 115.633 1187.98 121.719 1187.98 130.24V165.538Z" fill="black"/>
<path d="M1270.75 119.283H1257.36V146.061C1257.36 153.365 1259.79 155.799 1264.66 155.799C1267.09 155.799 1268.31 155.799 1270.75 155.799V165.536C1268.31 166.754 1264.66 166.754 1261.01 166.754C1256.14 166.754 1252.49 165.536 1250.05 161.885C1247.62 159.45 1246.4 153.365 1246.4 147.279V119.283H1237.88V109.546H1246.4V99.8083L1258.57 96.1567V109.546H1271.96V119.283H1270.75Z" fill="black"/>
<path d="M1336.47 165.536H1324.3V133.89C1324.3 124.152 1320.65 119.283 1313.34 119.283C1307.26 119.283 1303.61 121.718 1301.17 127.804C1301.17 129.021 1301.17 130.238 1301.17 132.672V165.536H1289V83.9849H1301.17V118.066C1304.82 111.98 1310.91 108.329 1318.21 108.329C1323.08 108.329 1327.95 109.546 1330.38 113.197C1334.04 116.849 1336.47 124.152 1336.47 131.455V165.536Z" fill="black"/>
<path d="M1403.42 135.108C1403.42 137.542 1403.42 138.759 1403.42 141.194H1366.9C1366.9 147.28 1369.33 150.931 1371.77 153.366C1375.42 155.8 1379.07 157.017 1383.94 157.017C1390.03 157.017 1394.89 155.8 1398.55 154.583L1400.98 163.103C1396.11 165.538 1390.03 166.755 1382.72 166.755C1374.2 166.755 1366.9 164.32 1362.03 159.452C1357.16 154.583 1354.73 147.28 1354.73 138.759C1354.73 130.239 1357.16 122.936 1362.03 118.067C1366.9 111.981 1372.99 109.547 1381.51 109.547C1390.03 109.547 1396.11 111.981 1399.76 118.067C1402.2 121.719 1403.42 127.805 1403.42 135.108ZM1392.46 131.456C1392.46 127.805 1391.24 124.153 1390.03 121.719C1387.59 118.067 1385.16 116.85 1380.29 116.85C1376.64 116.85 1372.99 118.067 1370.55 121.719C1368.12 124.153 1366.9 127.805 1366.9 131.456H1392.46Z" fill="black"/>
</svg>
