<svg width="269" height="269" viewBox="0 0 269 269" fill="none" xmlns="http://www.w3.org/2000/svg">
<circle cx="134.102" cy="134.102" r="134.102" fill="white"/>
<path d="M192.001 126.643C193.099 123.913 193.715 120.929 193.715 117.816C193.715 104.296 182.197 93.3266 168 93.3266C162.724 93.3266 157.795 94.8572 153.724 97.4593C146.304 85.2143 132.456 77 116.572 77C92.893 77 73.7144 95.2654 73.7144 117.816C73.7144 118.505 73.7412 119.194 73.768 119.883C58.7679 124.908 48 138.531 48 154.551C48 174.832 65.2768 191.286 86.5716 191.286H185.143C204.081 191.286 219.429 176.669 219.429 158.633C219.429 142.842 207.643 129.653 192.001 126.643ZM153.375 142.306H135.857V170.878C135.857 173.123 133.929 174.96 131.572 174.96H118.715C116.357 174.96 114.429 173.123 114.429 170.878V142.306H96.9109C93.0805 142.306 91.1787 137.919 93.8841 135.342L122.116 108.454C123.777 106.873 126.509 106.873 128.17 108.454L156.402 135.342C159.108 137.919 157.179 142.306 153.375 142.306V142.306Z" fill="black"/>
</svg>
