<svg width="269" height="269" viewBox="0 0 269 269" fill="none" xmlns="http://www.w3.org/2000/svg">
<circle cx="134.102" cy="134.102" r="134.102" fill="white"/>
<path d="M125.683 78.0179C125.683 73.5905 129.593 70 133.915 70C138.699 70 142.377 73.5905 142.377 78.0179H181.836C182.917 78.0179 183.971 78.4413 184.743 79.193L197.09 91.2198C198.685 92.7833 198.685 95.3315 197.09 96.885L184.743 108.912C183.971 109.663 182.917 110.089 181.836 110.089H84.5267C80.2129 110.089 76.2954 106.506 76.2954 102.072V86.0358C76.2954 81.6084 80.2129 78.0179 84.5267 78.0179H125.683ZM191.765 150.179C191.765 154.614 188.087 158.197 183.534 158.197H86.4636C85.3704 158.197 84.3235 157.771 83.5518 157.019L71.2048 144.992C69.5984 143.439 69.5984 140.883 71.2048 139.33L83.5518 127.303C84.3235 126.551 85.3704 125.9 86.4636 125.9H125.683V117.882H142.377V125.9H183.534C188.087 125.9 191.765 129.708 191.765 133.918V150.179ZM133.915 198.286C129.593 198.286 125.683 194.703 125.683 190.268V166.215H142.377V190.268C142.377 194.703 138.699 198.286 133.915 198.286Z" fill="black"/>
</svg>
