<svg width="1233" height="386" viewBox="0 0 1233 386" fill="none" xmlns="http://www.w3.org/2000/svg">
<path d="M1194.47 385.312H38.5312C17.3391 385.312 0 367.973 0 346.781V38.5312C0 17.3391 17.3391 0 38.5312 0H1194.47C1215.66 0 1233 17.3391 1233 38.5312V346.781C1233 367.973 1215.66 385.312 1194.47 385.312Z" fill="white"/>
<path fill-rule="evenodd" clip-rule="evenodd" d="M94.3999 188.803V87.6586C94.3999 81.8789 99.2163 77.0625 104.033 77.0625C108.849 77.0625 110.776 78.0258 113.666 79.9523L299.579 182.06C303.432 183.987 305.358 186.877 305.358 189.766C305.358 192.656 303.432 195.546 299.579 197.473L113.666 299.58C111.739 300.544 108.849 302.47 104.033 302.47C99.2163 302.47 94.3999 297.654 94.3999 291.874V188.803Z" fill="url(#paint0_linear_23_29)"/>
<path fill-rule="evenodd" clip-rule="evenodd" d="M214.813 189.766L102.109 77.0625C103.072 77.0625 103.072 77.0625 104.035 77.0625C108.852 77.0625 110.778 78.0258 113.668 79.9523L250.454 155.088L214.813 189.766Z" fill="url(#paint1_linear_23_29)"/>
<path fill-rule="evenodd" clip-rule="evenodd" d="M249.488 223.48L214.81 188.802L250.451 153.161L299.579 180.133C303.432 182.059 305.358 184.949 305.358 187.839C305.358 190.729 303.432 193.619 299.579 195.545L249.488 223.48Z" fill="url(#paint2_linear_23_29)"/>
<path fill-rule="evenodd" clip-rule="evenodd" d="M103.073 300.545L214.813 188.804L249.491 223.482L113.669 297.655C110.779 299.581 108.852 300.545 103.073 300.545C104.036 300.545 104.036 300.545 103.073 300.545Z" fill="url(#paint3_linear_23_29)"/>
<path fill-rule="evenodd" clip-rule="evenodd" d="M684.892 326.552C680.075 322.699 676.222 315.956 674.295 312.103L689.708 305.36C690.671 307.287 692.598 310.177 694.524 313.066C698.378 316.92 704.157 320.773 709.937 320.773C715.717 320.773 722.459 317.883 726.313 313.066C729.202 308.25 731.129 303.434 731.129 296.691V290.911C719.57 305.36 695.488 303.434 682.002 288.021C667.552 272.609 667.552 246.6 682.002 231.188C696.451 216.738 717.643 214.812 730.166 228.298V221.555H746.542V293.801C746.542 312.103 739.799 322.699 731.129 329.442C725.349 334.259 716.68 336.185 708.974 336.185C700.304 335.222 691.635 332.332 684.892 326.552ZM1088.51 330.405L1104.88 291.874L1075.98 225.408H1092.36L1112.59 272.609L1132.82 225.408H1149.19L1104.88 330.405H1088.51ZM1010.48 293.801C1005.66 288.984 1003.74 282.241 1003.74 275.498C1003.74 269.719 1005.66 263.939 1009.52 260.086C1016.26 253.343 1025.89 250.453 1036.49 250.453C1043.23 250.453 1049.01 251.416 1053.83 254.306C1053.83 242.747 1044.2 237.93 1036.49 237.93C1029.75 237.93 1023 241.784 1020.11 248.527L1005.66 242.747C1008.55 236.004 1016.26 223.481 1035.53 223.481C1045.16 223.481 1054.79 226.371 1060.57 233.114C1066.35 239.857 1068.28 247.563 1068.28 258.159V298.617H1051.9V291.874C1049.98 294.764 1046.12 296.691 1043.23 298.617C1039.38 300.544 1034.56 301.507 1029.75 301.507C1023.97 300.544 1015.3 298.617 1010.48 293.801ZM497.052 259.123C497.052 239.857 511.501 218.665 537.51 218.665C562.555 218.665 577.967 239.857 577.967 259.123C577.967 278.388 563.518 299.58 537.51 299.58C511.501 299.58 497.052 278.388 497.052 259.123ZM583.747 259.123C583.747 239.857 598.196 218.665 624.205 218.665C649.25 218.665 664.663 239.857 664.663 259.123C664.663 278.388 650.213 299.58 624.205 299.58C599.16 299.58 583.747 278.388 583.747 259.123ZM388.201 280.315C364.119 256.233 365.082 216.738 389.164 191.693C401.687 179.17 417.099 173.391 433.475 173.391C448.888 173.391 464.3 179.17 475.859 190.73L464.3 203.252C446.961 185.913 419.026 186.877 402.65 204.216C385.311 222.518 385.311 250.453 402.65 268.755C419.989 287.058 448.888 288.021 466.227 269.719C472.006 263.939 473.933 256.233 474.896 248.527H434.438V231.188H491.272C492.235 235.041 492.235 239.857 492.235 244.673C492.235 259.123 486.456 273.572 476.823 283.205C466.227 293.801 450.814 299.58 435.402 299.58C418.063 298.617 400.724 292.837 388.201 280.315ZM795.669 287.058C781.22 271.645 781.22 245.637 795.669 229.261C810.118 213.848 834.2 213.848 847.686 229.261C852.502 234.077 855.392 240.82 858.282 247.563L805.302 269.719C808.192 276.462 814.935 282.241 824.567 282.241C833.237 282.241 839.017 279.352 844.796 270.682L859.246 280.315C857.319 282.241 855.392 284.168 854.429 286.095C838.053 302.47 810.118 302.47 795.669 287.058ZM895.85 298.617V191.693H930.528C950.757 191.693 967.133 206.142 967.133 223.481C967.133 240.82 952.684 255.27 934.381 255.27H913.189V297.654H895.85V298.617ZM976.766 298.617V191.693H993.142V298.617H976.766ZM759.064 296.691V177.244H776.403V296.691H759.064ZM1052.86 266.829C1049.01 263.939 1043.23 262.976 1037.45 262.976C1025.89 262.976 1019.15 268.755 1019.15 275.498C1019.15 282.241 1025.89 286.095 1032.64 286.095C1042.27 286.095 1052.86 278.388 1052.86 266.829ZM559.665 259.123C559.665 247.563 551.959 235.041 537.51 235.041C523.06 235.041 515.354 247.563 515.354 259.123C515.354 270.682 523.06 283.205 537.51 283.205C550.995 283.205 559.665 270.682 559.665 259.123ZM646.36 259.123C646.36 247.563 638.654 235.041 624.205 235.041C609.756 235.041 602.049 247.563 602.049 259.123C602.049 270.682 609.756 283.205 624.205 283.205C638.654 283.205 646.36 270.682 646.36 259.123ZM732.092 265.866C732.092 264.902 732.092 263.939 733.056 262.976C733.056 262.012 733.056 260.086 733.056 259.123C733.056 258.159 733.056 256.233 733.056 255.27V254.306C733.056 253.343 732.092 251.416 732.092 250.453C729.202 240.82 720.533 234.077 711.863 234.077C700.304 234.077 690.671 245.637 690.671 258.159C690.671 271.645 700.304 282.241 712.827 282.241C720.533 283.205 728.239 276.462 732.092 265.866ZM802.412 257.196L838.053 241.784C834.2 235.041 828.42 233.114 823.604 233.114C809.155 234.077 800.485 249.49 802.412 257.196ZM949.794 224.445C949.794 214.812 942.088 208.069 931.492 208.069H912.226V241.784H932.455C942.088 241.784 949.794 234.077 949.794 224.445Z" fill="black"/>
<path fill-rule="evenodd" clip-rule="evenodd" d="M1101.03 311.139H1100.07V310.176H1101.03H1100.07V311.139H1101.03Z" fill="black"/>
<path fill-rule="evenodd" clip-rule="evenodd" d="M1102.95 311.139C1102.95 310.176 1102.95 310.176 1102.95 311.139C1101.99 310.176 1101.99 310.176 1102.95 311.139C1101.99 311.139 1101.99 311.139 1102.95 311.139ZM1102.95 310.176C1102.95 311.139 1102.95 311.139 1102.95 310.176C1102.95 311.139 1101.99 311.139 1102.95 310.176C1102.95 310.176 1101.99 310.176 1102.95 310.176Z" fill="black"/>
<path fill-rule="evenodd" clip-rule="evenodd" d="M1103.92 310.176H1102.96H1103.92V311.139V310.176Z" fill="black"/>
<path d="M374.715 97.2909C374.715 79.9518 387.238 69.3557 402.651 69.3557C413.247 69.3557 419.99 74.1721 424.806 80.9151L417.1 85.7315C414.21 81.8784 409.394 78.9885 402.651 78.9885C392.054 78.9885 384.348 86.6948 384.348 98.2542C384.348 109.814 392.054 117.52 402.651 117.52C408.43 117.52 413.247 114.63 415.173 112.703V104.034H399.761V95.3643H425.769V115.593C420.953 121.373 413.247 125.226 403.614 125.226C387.238 125.226 374.715 113.667 374.715 97.2909Z" fill="black"/>
<path d="M437.329 124.264V70.3201H473.933V78.9896H445.998V92.4755H472.97V101.145H445.998V116.558H473.933V125.227L437.329 124.264Z" fill="black"/>
<path d="M500.905 124.264V78.9896H484.529V70.3201H526.913V78.9896H510.537V124.264H500.905Z" fill="black"/>
<path d="M559.667 124.264V70.3201H569.3V124.264H559.667Z" fill="black"/>
<path d="M595.309 124.264V78.9896H578.933V70.3201H621.317V78.9896H604.942V124.264H595.309Z" fill="black"/>
<path d="M652.144 97.2909C652.144 80.9151 663.703 69.3557 680.079 69.3557C696.455 69.3557 708.014 80.9151 708.014 97.2909C708.014 113.667 696.455 125.226 680.079 125.226C663.703 125.226 652.144 112.703 652.144 97.2909ZM697.418 97.2909C697.418 85.7315 690.675 78.0252 679.115 78.0252C668.519 78.0252 660.813 86.6948 660.813 97.2909C660.813 108.85 667.556 116.556 679.115 116.556C690.675 116.556 697.418 107.887 697.418 97.2909Z" fill="black"/>
<path d="M756.177 124.264L728.242 85.7326V124.264H718.609V70.3201H728.242L756.177 107.888V70.3201H765.81V124.264H756.177Z" fill="black"/>
<defs>
<linearGradient id="paint0_linear_23_29" x1="156.699" y1="63.3223" x2="210.626" y2="284.789" gradientUnits="userSpaceOnUse">
<stop stop-color="#006884"/>
<stop offset="1" stop-color="#8AD1D0"/>
</linearGradient>
<linearGradient id="paint1_linear_23_29" x1="90.9416" y1="94.8235" x2="237.9" y2="174.27" gradientUnits="userSpaceOnUse">
<stop stop-color="#24BBB6"/>
<stop offset="1" stop-color="#DBE692"/>
</linearGradient>
<linearGradient id="paint2_linear_23_29" x1="260.03" y1="227.527" x2="260.03" y2="150.962" gradientUnits="userSpaceOnUse">
<stop stop-color="#FCC072"/>
<stop offset="1" stop-color="#F58A5B"/>
</linearGradient>
<linearGradient id="paint3_linear_23_29" x1="119.397" y1="320.476" x2="235.489" y2="202.328" gradientUnits="userSpaceOnUse">
<stop stop-color="#712B8F"/>
<stop offset="1" stop-color="#EA1D27"/>
</linearGradient>
</defs>
</svg>
